<svg xmlns="http://www.w3.org/2000/svg" viewBox="0 0 1600 720" fill="none">
  <defs>
    <pattern id="grid" width="64" height="64" patternUnits="userSpaceOnUse">
      <path d="M64 0H0V64" stroke="#79908B" stroke-opacity=".085"/>
    </pattern>
    <pattern id="dots" width="24" height="24" patternUnits="userSpaceOnUse">
      <circle cx="2" cy="2" r="2" fill="#5E827A" fill-opacity=".18"/>
    </pattern>
    <linearGradient id="tealLine" x1="0" y1="0" x2="1600" y2="0" gradientUnits="userSpaceOnUse">
      <stop stop-color="#6CA8AE" stop-opacity=".08"/>
      <stop offset=".18" stop-color="#5F9FA5" stop-opacity=".34"/>
      <stop offset=".5" stop-color="#5F9FA5" stop-opacity=".13"/>
      <stop offset=".82" stop-color="#5F9FA5" stop-opacity=".32"/>
      <stop offset="1" stop-color="#6CA8AE" stop-opacity=".07"/>
    </linearGradient>
    <linearGradient id="sandLine" x1="0" y1="0" x2="1600" y2="0" gradientUnits="userSpaceOnUse">
      <stop stop-color="#B99B67" stop-opacity=".07"/>
      <stop offset=".2" stop-color="#B28E55" stop-opacity=".29"/>
      <stop offset=".5" stop-color="#B28E55" stop-opacity=".10"/>
      <stop offset=".82" stop-color="#B28E55" stop-opacity=".28"/>
      <stop offset="1" stop-color="#B99B67" stop-opacity=".06"/>
    </linearGradient>
    <linearGradient id="barFill" x1="0" y1="0" x2="0" y2="1">
      <stop stop-color="#6B9F9A" stop-opacity=".28"/>
      <stop offset="1" stop-color="#6B9F9A" stop-opacity=".07"/>
    </linearGradient>
  </defs>

  <rect width="1600" height="720" fill="#F7F2E8" fill-opacity=".14"/>
  <rect width="1600" height="720" fill="url(#grid)"/>

  <rect x="0" y="120" width="300" height="260" fill="url(#dots)" opacity=".52"/>
  <rect x="1280" y="92" width="320" height="270" fill="url(#dots)" opacity=".45"/>
  <rect x="300" y="500" width="180" height="120" fill="url(#dots)" opacity=".28"/>
  <rect x="1110" y="500" width="190" height="130" fill="url(#dots)" opacity=".3"/>

  <path d="M-40 462C92 408 151 298 258 282C376 264 437 389 552 405C651 419 709 352 801 350C916 348 982 424 1093 405C1200 387 1245 286 1349 259C1448 234 1512 281 1640 212" stroke="url(#tealLine)" stroke-width="2.2"/>
  <path d="M-30 402C93 378 151 212 252 205C343 199 358 331 446 346C553 364 618 228 728 232C843 236 894 357 1007 350C1119 344 1182 252 1283 249C1392 245 1461 345 1635 329" stroke="url(#sandLine)" stroke-width="1.8"/>
  <path d="M-10 525C141 462 212 461 333 512C446 560 517 560 619 517C721 475 783 460 891 493C1002 527 1060 570 1177 550C1303 529 1409 445 1612 414" stroke="#729691" stroke-opacity=".13" stroke-width="1.8" stroke-dasharray="9 13"/>
  <path d="M1020 112C1119 159 1168 208 1224 267C1281 327 1352 367 1451 382C1518 392 1569 386 1620 370" stroke="#709A9D" stroke-opacity=".09" stroke-width="1.5" stroke-dasharray="7 12"/>

  <g stroke="#5C8F92" stroke-opacity=".24" fill="#F7F2E8">
    <circle cx="146" cy="337" r="7" stroke-width="2"/>
    <circle cx="258" cy="282" r="6" stroke-width="2"/>
    <circle cx="552" cy="405" r="5" stroke-width="1.7"/>
    <circle cx="1007" cy="350" r="5" stroke-width="1.7"/>
    <circle cx="1242" cy="314" r="6" stroke-width="2"/>
    <circle cx="1349" cy="259" r="7" stroke-width="2"/>
  </g>
  <g fill="#B28E55" fill-opacity=".28">
    <circle cx="252" cy="205" r="4"/>
    <circle cx="446" cy="346" r="4"/>
    <circle cx="1184" cy="291" r="4"/>
    <circle cx="1451" cy="382" r="4"/>
  </g>

  <g opacity=".72">
    <path d="M64 606H330" stroke="#728A84" stroke-opacity=".13"/>
    <rect x="80" y="566" width="16" height="40" rx="2" fill="url(#barFill)"/>
    <rect x="110" y="543" width="16" height="63" rx="2" fill="url(#barFill)"/>
    <rect x="140" y="519" width="16" height="87" rx="2" fill="url(#barFill)"/>
    <rect x="170" y="548" width="16" height="58" rx="2" fill="url(#barFill)"/>
    <rect x="200" y="495" width="16" height="111" rx="2" fill="url(#barFill)"/>
    <rect x="230" y="468" width="16" height="138" rx="2" fill="url(#barFill)"/>
    <rect x="260" y="438" width="16" height="168" rx="2" fill="url(#barFill)"/>
  </g>

  <g opacity=".76">
    <path d="M1270 462H1534" stroke="#728A84" stroke-opacity=".13"/>
    <rect x="1290" y="414" width="18" height="48" rx="2" fill="url(#barFill)"/>
    <rect x="1326" y="382" width="18" height="80" rx="2" fill="url(#barFill)"/>
    <rect x="1362" y="398" width="18" height="64" rx="2" fill="url(#barFill)"/>
    <rect x="1398" y="344" width="18" height="118" rx="2" fill="url(#barFill)"/>
    <rect x="1434" y="309" width="18" height="153" rx="2" fill="url(#barFill)"/>
    <rect x="1470" y="372" width="18" height="90" rx="2" fill="url(#barFill)"/>
  </g>

  <circle cx="800" cy="370" r="194" fill="#F7F2E8" fill-opacity=".14"/>
  <circle cx="800" cy="370" r="194" stroke="#6E8C85" stroke-opacity=".055"/>
</svg>
