<svg xmlns="http://www.w3.org/2000/svg" viewBox="0 0 1080 1600" role="img" aria-label=""><defs><linearGradient id="bgm" x1="0" y1="0" x2=".85" y2="1"><stop offset="0" stop-color="#27343b"/><stop offset=".62" stop-color="#354247"/><stop offset="1" stop-color="#466b72"/></linearGradient><pattern id="gridm" width="72" height="72" patternUnits="userSpaceOnUse"><path d="M72 0H0V72" fill="none" stroke="#b8c8c9" stroke-opacity=".09" stroke-width="1"/></pattern></defs><rect width="1080" height="1600" fill="url(#bgm)"/><rect width="1080" height="1600" fill="url(#gridm)"/><g fill="none" stroke-linecap="round"><path d="M60 1260 C250 1200 330 1110 470 1135 S690 1250 820 1075 S970 875 1120 835" stroke="#b8c8c9" stroke-opacity=".25" stroke-width="5"/><path d="M-40 1390 C180 1320 320 1315 450 1255 S690 1180 810 1185 S980 1240 1120 1110" stroke="#70816f" stroke-opacity=".34" stroke-width="4"/></g><g fill="#b8c8c9" fill-opacity=".25"><circle cx="280" cy="1195" r="7"/><circle cx="470" cy="1135" r="8"/><circle cx="650" cy="1195" r="7"/><circle cx="820" cy="1075" r="8"/><circle cx="965" cy="910" r="7"/></g><g fill="#96abb0" fill-opacity=".18"><rect x="680" y="1190" width="42" height="185" rx="4"/><rect x="742" y="1125" width="42" height="250" rx="4"/><rect x="804" y="1235" width="42" height="140" rx="4"/><rect x="866" y="1040" width="42" height="335" rx="4"/><rect x="928" y="1090" width="42" height="285" rx="4"/></g><g fill="#96abb0" fill-opacity=".11"><circle cx="780" cy="340" r="5"/><circle cx="830" cy="400" r="4"/><circle cx="880" cy="310" r="5"/><circle cx="930" cy="370" r="4"/><circle cx="980" cy="295" r="5"/></g></svg>